# xmcd
#
# Track frame offsets:
# 150
# 14790
# 28720
# 42902
# 60382
# 74847
# 90805
# 108625
# 123852
# 138265
# 155855
#
# Disc length: 2279 seconds
#
#
# Revision: 0
# Processed by: cddbd v1.5.1PL2 Copyright (c) Steve Scherf et al.
# Submitted via: Nero 7, 0, 5, 4 
#
DISCID=9708e50b
DTITLE=Scheller - So oder Su
DYEAR=1991
DGENRE=blues
TTITLE0=So oder Su
TTITLE1=Express
TTITLE2=Ökobewußt
TTITLE3=Ein Blick von Dir
TTITLE4=Fröhmorjens bes ovends
TTITLE5=KVB-Blues
TTITLE6=Köln-Rhapsodie
TTITLE7=Ich gebe nicht auf
TTITLE8=Niemandsland
TTITLE9=Kneipeninspekteure
TTITLE10=Vollmond
EXTD=
EXTT0=
EXTT1=
EXTT2=
EXTT3=
EXTT4=
EXTT5=
EXTT6=
EXTT7=
EXTT8=
EXTT9=
EXTT10=
PLAYORDER=
